<?xml version="1.0" encoding="utf-8"?>

<!DOCTYPE svg PUBLIC "-//W3C//DTD SVG 1.1//EN" "http://www.w3.org/Graphics/SVG/1.1/DTD/svg11.dtd">
<!-- Uploaded to: SVG Repo, www.svgrepo.com, Generator: SVG Repo Mixer Tools -->
<svg version="1.1" id="_x32_" xmlns="http://www.w3.org/2000/svg" xmlns:xlink="http://www.w3.org/1999/xlink" 
	 width="800px" height="800px" viewBox="0 0 512 512"  xml:space="preserve">
<style type="text/css">
<![CDATA[
	.st0{fill:#20D915;}
]]>
</style>
<g>
	<path class="st0" d="M396.094,320.371c4.875-5.906,9.781-10.234,14.531-13.406c5.125-3.422,10.031-5.5,14.547-6.719
		c1.203-0.328,2.391-0.594,3.547-0.797c0.453,2.609,1.438,5.172,3,7.516c6,8.953,18.125,11.375,27.094,5.375
		s11.375-18.109,5.375-27.078c-2.609-3.922-6.406-6.594-10.609-7.844c-2.266-0.969-4.641-1.703-7.203-2.25
		c-3-0.641-6.25-1.031-9.719-1.109c-6.938-0.141-14.797,0.922-23.047,3.844c-5.5,1.938-11.141,4.719-16.766,8.453
		c-5.219,3.516-10.406,7.859-15.375,13.141c-11.188-8.078-32.094-23.625-57.313-44.563C471.578,132.621,511.609,17.918,512,16.762
		c-1.25,0.516-118.984,47.984-156.906,52.281c-25,44.563-61.938,87.5-99.094,124.297c-37.156-36.797-74.109-79.734-99.109-124.297
		C118.969,64.746,1.25,17.277,0,16.762c0.391,1.156,40.422,115.859,187.844,238.172c-25.219,20.938-46.125,36.484-57.297,44.563
		c-4.984-5.281-10.172-9.625-15.406-13.141c-5.609-3.734-11.266-6.516-16.75-8.453c-8.25-2.922-16.125-3.984-23.047-3.844
		c-3.469,0.078-6.719,0.469-9.719,1.109c-2.563,0.547-4.953,1.281-7.219,2.25c-4.188,1.25-7.969,3.922-10.594,7.844
		c-6,8.969-3.594,21.078,5.375,27.078s21.094,3.578,27.094-5.375c1.563-2.344,2.547-4.906,3-7.516
		c1.141,0.203,2.328,0.469,3.547,0.797c4.516,1.219,9.422,3.297,14.547,6.719c4.75,3.172,9.656,7.5,14.531,13.406
		c-8.688,6.484-54.938,41.844-90.531,86.859C18.813,415.543,2,436.059,8.031,458.965c7.859,29.906,34.438,45.609,52.375,30.359
		c15.031-12.781,8.156-31.547,23.094-55.031c3.469,4.906,7.5,9,12.094,12.094c3,2,6.25,3.578,9.641,4.672
		c5.094,1.656,10.484,2.25,15.984,1.969c5.531-0.281,11.188-1.406,17.031-3.203c8.906-2.766,16.844-6.297,23.688-10.797
		c6.813-4.5,12.563-10,16.906-16.5c2.328-3.484,4.25-7.25,5.734-11.219c0.828,0.578,1.641,1.156,2.453,1.703
		c2,1.328,3.922,2.516,5.813,3.531c0.344,0.203,0.688,0.375,1.047,0.547c0.891,0.891,1.859,1.688,2.922,2.422
		c8.969,5.984,21.094,3.563,27.094-5.391c5.984-8.969,3.578-21.094-5.391-27.078c-7.359-4.922-16.859-4.172-23.359,1.234
		c-1.813-1.438-3.734-3.047-5.703-4.828c-6.234-5.578-13.016-12.734-19.344-21.016c-0.594-0.766-1.188-1.578-1.781-2.391
		c31.953-17.531,61.109-35.563,87.672-53.75c26.563,18.188,55.719,36.219,87.672,53.75c-0.594,0.813-1.188,1.625-1.797,2.391
		c-6.313,8.281-13.094,15.438-19.344,21.016c-1.969,1.781-3.875,3.391-5.688,4.828c-6.5-5.406-16-6.156-23.375-1.234
		c-8.953,5.984-11.359,18.109-5.375,27.078c6,8.953,18.125,11.375,27.078,5.391c1.078-0.734,2.047-1.531,2.922-2.422
		c0.359-0.172,0.719-0.344,1.063-0.547c1.906-1.016,3.813-2.203,5.813-3.531c0.813-0.547,1.625-1.125,2.453-1.703
		c1.484,3.969,3.391,7.734,5.734,11.219c4.344,6.5,10.078,12,16.906,16.5c6.844,4.5,14.781,8.031,23.688,10.797
		c5.844,1.797,11.5,2.922,17.016,3.203s10.906-0.313,15.984-1.969c3.406-1.094,6.656-2.672,9.656-4.672
		c4.594-3.094,8.625-7.188,12.094-12.094c14.938,23.484,8.063,42.25,23.094,55.031c17.938,15.25,44.516-0.453,52.375-30.359
		c6.031-22.906-10.781-43.422-17.344-51.734C451.031,362.215,404.781,326.855,396.094,320.371z M45.859,475.543
		c-3.672,2.859-8.953,2.219-11.828-1.469c-2.844-3.656-2.219-8.953,1.469-11.813c3.656-2.859,8.953-2.219,11.813,1.453
		C50.188,467.387,49.531,472.684,45.859,475.543z M363.594,81.418c30.031-5.578,86.969-26.375,122.469-39.984
		c-10.297,20.047-27.375,49.203-53.813,83.438c-29.813,38.609-65.344,75.719-105.625,110.313
		c-4.266,3.656-8.594,7.297-12.984,10.922c-7.234-6.156-14.719-12.672-22.359-19.547c6.781-6.063,13.344-12.016,19.656-17.797
		c50.703-46.469,85.266-82.672,85.297-82.703c1.422-1.5,1.375-3.891-0.109-5.313c-1.516-1.438-3.875-1.391-5.328,0.125
		c0,0-0.109,0.141-0.391,0.406c-4.063,4.234-39.438,40.875-89.313,86.313c-5,4.563-10.156,9.203-15.422,13.906
		c-6.578-6-13.266-12.234-19.969-18.688C308.156,160.809,340.953,120.137,363.594,81.418z M198.5,263.652
		c6.344,5.078,12.844,10.188,19.563,15.266c-21.281,17.125-43.313,33.859-65.406,49.203l-12.469-18.906
		C152.219,300.48,173.281,284.699,198.5,263.652z M170.125,399.34c-0.125,0.656-0.281,1.297-0.453,1.938
		c-1.156,4.375-2.875,8.203-5.188,11.656c-2.953,4.406-6.891,8.266-12.063,11.672s-11.578,6.344-19.266,8.703
		c-3.172,1-6.141,1.672-8.875,2.078c-4.094,0.594-7.656,0.563-10.75,0c-3.094-0.594-5.781-1.656-8.344-3.359
		c-2.656-1.781-5.219-4.297-7.703-7.875c-0.906-1.313-1.797-2.766-2.672-4.375c20.453-23.547,41.203-38.672,52.75-46.141
		c3.344,4.609,6.813,8.938,10.313,12.969C161.953,391.293,166.078,395.543,170.125,399.34z M164.844,346.543l-8.031-12.172
		c22.813-15.844,45.547-33.141,67.438-50.781c6.438,4.813,13.063,9.625,19.875,14.438
		C218.938,315.074,192.469,331.262,164.844,346.543z M267.875,298.027c-4-2.703-7.938-5.438-11.875-8.188
		c-7.078-4.938-14.063-9.969-20.938-15.063c-2.063-1.531-4.125-3.063-6.188-4.641c-6.719-5.047-13.344-10.188-19.844-15.375
		c-3.594-2.859-7.156-5.75-10.672-8.656c-4.391-3.625-8.719-7.266-12.984-10.922C145.094,200.59,109.563,163.48,79.75,124.871
		C53.313,90.637,36.234,61.48,25.938,41.434c35.5,13.609,92.438,34.406,122.469,39.984c22.625,38.734,55.438,79.406,97.891,121.391
		c3.172,3.141,6.422,6.297,9.703,9.453c6.281,6.063,12.781,12.141,19.5,18.25c1.844,1.688,3.719,3.375,5.594,5.078
		c3.219,2.906,6.5,5.813,9.813,8.719c4.094,3.594,8.125,7.078,12.063,10.453c3.578,3.047,7.094,6.016,10.516,8.891
		c25.234,21.047,46.297,36.828,58.328,45.563l-12.484,18.906c-22.078-15.344-44.125-32.078-65.391-49.203
		c-3.625-2.906-7.219-5.828-10.813-8.781c-7.234-5.906-14.359-11.859-21.344-17.781c-1.938-1.641-3.875-3.297-5.781-4.922
		c-6.641-5.688-13.156-11.344-19.5-16.922c-3.438-3.016-6.828-6.031-10.172-9.016c-5.266-4.703-10.422-9.344-15.422-13.906
		c-49.891-45.438-85.25-82.078-89.313-86.313c-0.281-0.266-0.406-0.406-0.406-0.406c-0.734-0.781-1.719-1.172-2.719-1.172
		c-0.922,0-1.859,0.359-2.594,1.047c-1.5,1.422-1.531,3.813-0.125,5.313c0.047,0.031,34.609,36.234,85.313,82.703
		c6.313,5.781,12.875,11.734,19.656,17.797c3.344,2.984,6.75,5.984,10.188,9.031c6.281,5.531,12.734,11.141,19.313,16.766
		c1.906,1.656,3.844,3.297,5.781,4.953c6.844,5.813,13.844,11.641,20.938,17.469c3.563,2.953,7.188,5.891,10.813,8.813
		c21.891,17.641,44.625,34.938,67.438,50.781l-8.031,12.172C319.531,331.262,293.063,315.074,267.875,298.027z M414.516,424.152
		c-2.484,3.578-5.047,6.094-7.703,7.875c-2.563,1.703-5.25,2.766-8.344,3.359c-3.094,0.563-6.656,0.594-10.75,0
		c-2.734-0.406-5.703-1.078-8.875-2.078c-7.688-2.359-14.094-5.297-19.266-8.703s-9.125-7.266-12.078-11.672
		c-2.297-3.453-4.031-7.281-5.172-11.656c-0.172-0.641-0.328-1.281-0.469-1.938c4.047-3.797,8.172-8.047,12.266-12.734
		c3.5-4.031,6.969-8.359,10.313-12.969c11.547,7.469,32.297,22.594,52.75,46.141C416.313,421.387,415.422,422.84,414.516,424.152z
		 M477.969,474.074c-2.875,3.688-8.156,4.328-11.844,1.469c-3.656-2.859-4.313-8.156-1.453-11.828s8.172-4.313,11.828-1.453
		C480.172,465.121,480.813,470.418,477.969,474.074z"/>
</g>
</svg>